<svg width="251" height="260" viewBox="0 0 251 260" fill="none" xmlns="http://www.w3.org/2000/svg">
<g filter="url(#filter0_d)">
<path d="M43.6919 82.4149C43.8197 109.429 43.9155 140.786 43.9155 152.136V166.88C43.9155 170.108 46.5324 172.725 49.7606 172.725C72.4705 172.725 90.8044 178.905 108.595 192.519C110.544 193.988 114.441 197.414 117.315 200.137C120.158 202.86 122.49 205.001 122.49 204.94C122.49 204.879 121.819 203.104 120.988 200.932C119.104 196.007 115.143 188.45 112.396 184.504C100.259 166.974 82.7234 156.511 56.4682 151.127C56.0443 151.056 55.7335 150.689 55.7335 150.26V92.4494V36.2014C55.7335 34.8986 54.7325 33.8145 53.4338 33.7108C52.1562 33.619 49.3773 33.4967 47.3012 33.4355C45.2195 33.3852 43.507 35.0634 43.5151 37.1457L43.6919 82.4149Z" fill="#FCBF49"/>
<path d="M33.6944 64.8239C33.6944 75.1643 33.7902 106.553 33.918 134.607L34.0827 178.45C34.0975 182.376 37.3377 185.522 41.2624 185.421L42.4462 185.391C69.5958 184.718 89.7823 189.154 106.775 199.464C110.065 201.452 114.6 204.634 116.197 206.011C117.251 206.959 117.251 206.775 116.357 204.267C115.686 202.431 115.367 202.064 111.949 199.097C92.7847 182.393 71.4803 174.714 46.7581 175.601C43.6841 175.718 41.1241 173.266 41.109 170.19L40.9449 136.748C40.8172 115.241 40.7214 86.4838 40.7214 72.8393C40.7214 59.1642 40.6255 47.5389 40.5297 47.0188C40.4182 46.4671 39.9334 46.0704 39.3705 46.0704H37.0162C35.1816 46.0704 33.6944 47.5576 33.6944 49.3922V64.8239Z" fill="#FCBF49"/>
<path d="M25.7412 70.912C25.7714 104.623 26.231 186.065 26.4155 194.813C26.4269 195.355 26.715 195.609 27.2565 195.603C28.75 195.587 32.1284 195.449 35.9942 195.242C65.3158 193.62 81.2222 194.661 95.1803 199.097C99.3326 200.412 106.775 203.747 109.969 205.735C112.46 207.295 112.588 206.837 110.129 205.093C92.3057 192.488 69.8833 187.165 39.5715 188.358C36.5616 188.461 33.8941 188.549 32.4462 188.578C31.6844 188.594 31.2823 188.186 31.2723 187.424C31.2033 182.163 31.0914 159.453 30.9795 132.496C30.8837 101.689 30.724 71.9216 30.6281 66.3231L30.4811 58.5294C30.4563 57.2171 29.3854 56.1662 28.0729 56.1662C26.7683 56.1662 25.7116 57.2253 25.7144 58.5298L25.7412 70.912Z" fill="#FCBF49"/>
<g filter="url(#filter1_d)">
<path d="M201 33.5579C179.632 35.2405 159.892 46.5599 143.73 66.4147C138.428 72.9005 132.327 82.5066 128.75 90.0019L127.694 92.1895C127.233 93.1456 126.995 94.1942 126.999 95.2558L127.185 149.322L127.352 197.901C127.361 200.585 130.575 201.956 132.519 200.106C152.194 181.353 173.435 172.725 200.042 172.725C203.254 172.725 205.859 170.124 205.863 166.912L205.887 150.913C205.887 138.951 206.015 122.736 206.142 114.905C206.302 107.073 206.366 100.618 206.302 100.557C206.078 100.312 199.722 101.872 195.314 103.279C176.565 109.153 162 120.35 156.091 133.444C154.494 136.993 154.59 136.993 158.167 133.597C168.548 123.777 178.961 118.606 193.015 116.312C193.547 116.216 194.037 116.626 194.037 117.167V133.566V150.291C194.037 150.703 193.74 151.056 193.334 151.127C174.777 154.798 159.796 161.651 149 171.349C145.583 174.439 142.453 177.712 140.281 180.527C139.259 181.873 138.332 183.035 138.268 183.096C138.204 183.158 138.141 162.232 138.141 136.534V93.0036C138.141 90.9977 139.001 89.0881 140.504 87.7594L142.708 85.8107C158.104 72.1356 168.612 65.2828 179.472 61.8258C186.084 59.7149 188.415 59.4089 197.806 59.4701L199.123 59.4798C203.009 59.5082 206.174 56.3659 206.174 52.4799V46.3763V34.2439C206.174 33.6842 205.712 33.2352 205.152 33.2519C204.577 33.2825 202.693 33.4049 201 33.5579Z" fill="#FCBF49"/>
<path d="M210.199 47.2023C210.103 47.8448 210.007 59.4701 210.007 73.0228C210.007 86.5755 209.911 115.241 209.784 136.748L209.62 170.19C209.604 173.266 207.044 175.718 203.97 175.601C179.248 174.714 157.944 182.393 138.779 199.097C135.362 202.064 135.042 202.431 134.372 204.267C133.477 206.775 133.477 206.959 134.563 206.011C136.128 204.634 140.664 201.452 143.954 199.464C160.946 189.154 181.133 184.718 208.282 185.391L209.466 185.421C213.391 185.522 216.631 182.376 216.646 178.45L216.811 134.607C216.938 106.553 217.034 75.1643 217.034 64.8239V49.3922C217.034 47.5576 215.547 46.0704 213.712 46.0704H211.576C210.906 46.0704 210.329 46.5445 210.199 47.2023Z" fill="#FCBF49"/>
<path d="M220.1 66.3231C220.005 71.9216 219.845 101.689 219.749 132.496C219.637 159.453 219.525 182.163 219.456 187.424C219.446 188.186 219.044 188.594 218.282 188.578C216.834 188.549 214.167 188.461 211.157 188.358C180.845 187.165 158.423 192.488 140.6 205.093C138.141 206.837 138.268 207.295 140.792 205.735C143.954 203.747 151.396 200.412 155.548 199.097C169.506 194.661 185.413 193.62 214.734 195.242C218.6 195.449 221.979 195.587 223.472 195.603C224.014 195.609 224.302 195.355 224.313 194.813C224.497 186.065 224.957 104.623 224.987 70.912L225.014 58.5298C225.017 57.2253 223.96 56.1662 222.656 56.1662C221.343 56.1662 220.272 57.2171 220.247 58.5294L220.1 66.3231Z" fill="#FCBF49"/>
</g>
</g>
<g filter="url(#filter2_d)">
<path d="M117.858 7.09476C117.155 7.15595 114.92 7.3701 112.907 7.55366C98.2466 8.89975 82.0846 13.7029 68.7015 20.7086C64.6769 22.8196 55.6697 28.3263 55.2864 28.9076C55.1905 29.0605 55.9891 29.3359 57.0431 29.5194C58.2977 29.7164 59.5809 29.4437 60.647 28.7534L61.2593 28.3569C76.5589 18.5671 94.0624 12.5097 113.067 10.3988C122.458 9.35865 136 9.81754 145.806 11.5308C161.553 14.2535 177.811 20.6169 190.172 28.8464C192.12 30.1619 192.28 30.1925 193.845 30.0089C194.739 29.8865 195.634 29.703 195.857 29.5806C196.273 29.3665 193.27 27.1944 188.543 24.3798C173.467 15.2937 157.145 9.78695 139.099 7.64544C135.33 7.18654 120.733 6.81943 117.858 7.09476Z" fill="#003049"/>
<path d="M119.934 16.4257C104.826 17.0681 89.399 20.984 75.8881 27.6534C71.6081 29.7643 68.1904 31.6917 68.1904 31.9976C68.1904 32.1506 68.6056 32.3341 69.1167 32.4565C69.8833 32.6095 70.7457 32.2729 73.8439 30.6515C98.4702 17.6188 128.271 14.4677 155.325 22.0854C163.15 24.2881 171.167 27.5004 177.875 31.1716C181.452 33.1601 181.612 33.1907 182.602 32.8236C183.014 32.6633 183.057 32.0978 182.675 31.8763L180.877 30.8351C177.236 28.7241 170.752 25.6342 166.408 23.9516C151.747 18.2001 136.512 15.7526 119.934 16.4257Z" fill="#003049"/>
<path d="M19.6086 69.1678C13.5718 80.3955 9.45145 93.4893 7.59889 107.103C6.80037 113.161 6.80037 127.662 7.59889 133.719C9.45145 147.364 13.5399 160.305 19.5767 171.624L20.0377 172.484C20.4114 173.181 21.4668 172.935 21.4931 172.144L21.5428 170.654C21.5731 169.742 21.3953 168.836 21.0228 168.003L19.385 164.343C14.5939 153.696 11.5915 142.561 10.3458 130.966C9.83474 126.254 9.83474 114.568 10.3458 109.857C11.5595 98.4148 14.5939 87.1565 19.2253 76.8161L20.7081 73.4874C21.0776 72.658 21.254 71.7556 21.224 70.8482L21.1737 69.3208C21.1474 68.5246 20.0839 68.2771 19.7088 68.9799L19.6086 69.1678Z" fill="#003049"/>
<path d="M229.491 69.4433C229.491 72.2579 229.523 72.3191 231.535 76.8468C236.135 87.1567 239.169 98.4149 240.383 109.857C240.606 111.876 240.766 116.618 240.766 120.411C240.766 124.205 240.606 128.947 240.383 130.966C239.137 142.561 236.135 153.696 231.344 164.343L229.706 168.003C229.333 168.836 229.155 169.742 229.186 170.654L229.235 172.144C229.262 172.935 230.317 173.181 230.691 172.484L231.152 171.624C237.189 160.305 241.277 147.364 243.13 133.719C243.928 127.662 243.928 113.161 243.13 107.103C241.309 93.5812 237.316 80.9463 231.216 69.2292C230.449 67.7607 229.747 66.5676 229.651 66.5676C229.555 66.5676 229.491 67.8525 229.491 69.4433Z" fill="#003049"/>
<path d="M19.896 95.1721C17.5324 104.197 16.7339 110.744 16.7339 120.411C16.7339 130.109 17.5963 137.115 19.9599 146.14C21.3653 151.433 21.525 151.647 21.525 148.343C21.557 146.354 21.2695 144.151 20.5987 140.97C19.0017 133.322 18.5545 129.038 18.5545 120.411C18.5545 111.998 18.9698 107.838 20.439 100.587C21.0459 97.5583 21.2376 95.8145 21.1737 93.5507C21.1578 93.0596 20.4599 92.9826 20.3374 93.4584L19.896 95.1721Z" fill="#003049"/>
<path d="M229.491 93.7036C229.491 95.6616 229.778 98.0784 230.289 100.648C231.759 107.807 232.174 112.029 232.174 120.411C232.174 129.038 231.727 133.322 230.13 140.97C229.459 144.151 229.172 146.354 229.203 148.343C229.203 151.647 229.363 151.433 230.769 146.14C233.132 137.115 233.994 130.109 233.994 120.411C233.994 113.589 233.579 108.296 232.525 102.514C231.982 99.4551 229.81 90.7361 229.619 90.7361C229.555 90.7361 229.491 92.0822 229.491 93.7036Z" fill="#003049"/>
<path d="M54.5198 198.974C54.0726 199.28 57.8097 202.248 63.016 205.766C100.195 230.822 150.533 230.822 187.712 205.766C192.919 202.248 196.656 199.28 196.209 198.974C195.282 198.424 194.292 198.852 191.29 201.055C175.256 212.894 158.231 219.624 137.981 222.164C132.2 222.898 118.529 222.898 112.748 222.164C92.4972 219.624 75.4729 212.894 59.4387 201.055C56.4362 198.852 55.4461 198.424 54.5198 198.974Z" fill="#003049"/>
<path d="M43.7558 202.645C57.6819 215.647 76.3353 225.559 95.8191 230.332C106.743 232.994 113.131 233.728 125.364 233.728C137.598 233.728 143.986 232.994 154.909 230.332C174.393 225.559 193.047 215.647 206.973 202.645L208.99 200.765C209.533 200.26 209.183 199.352 208.442 199.341C207.144 199.341 205.888 199.806 204.903 200.652L203.651 201.728C190.907 212.71 178.035 220.083 162.767 225.07C150.374 229.139 138.779 230.944 125.364 230.944C111.949 230.944 100.355 229.139 87.9617 225.07C72.694 220.083 59.8219 212.71 47.0776 201.728L45.8254 200.652C44.8403 199.806 43.5849 199.341 42.2865 199.341C41.5457 199.352 41.196 200.26 41.7381 200.765L43.7558 202.645Z" fill="#003049"/>
</g>
<defs>
<filter id="filter0_d" x="21.7144" y="33.2515" width="207.3" height="181.436" filterUnits="userSpaceOnUse" color-interpolation-filters="sRGB">
<feFlood flood-opacity="0" result="BackgroundImageFix"/>
<feColorMatrix in="SourceAlpha" type="matrix" values="0 0 0 0 0 0 0 0 0 0 0 0 0 0 0 0 0 0 127 0" result="hardAlpha"/>
<feOffset dy="4"/>
<feGaussianBlur stdDeviation="2"/>
<feComposite in2="hardAlpha" operator="out"/>
<feColorMatrix type="matrix" values="0 0 0 0 0 0 0 0 0 0 0 0 0 0 0 0 0 0 0.5 0"/>
<feBlend mode="normal" in2="BackgroundImageFix" result="effect1_dropShadow"/>
<feBlend mode="normal" in="SourceGraphic" in2="effect1_dropShadow" result="shape"/>
</filter>
<filter id="filter1_d" x="122.999" y="33.2515" width="106.015" height="181.436" filterUnits="userSpaceOnUse" color-interpolation-filters="sRGB">
<feFlood flood-opacity="0" result="BackgroundImageFix"/>
<feColorMatrix in="SourceAlpha" type="matrix" values="0 0 0 0 0 0 0 0 0 0 0 0 0 0 0 0 0 0 127 0" result="hardAlpha"/>
<feOffset dy="4"/>
<feGaussianBlur stdDeviation="2"/>
<feComposite in2="hardAlpha" operator="out"/>
<feColorMatrix type="matrix" values="0 0 0 0 0 0 0 0 0 0 0 0 0 0 0 0 0 0 0.25 0"/>
<feBlend mode="normal" in2="BackgroundImageFix" result="effect1_dropShadow"/>
<feBlend mode="normal" in="SourceGraphic" in2="effect1_dropShadow" result="shape"/>
</filter>
<filter id="filter2_d" x="0" y="0" width="250.728" height="240.728" filterUnits="userSpaceOnUse" color-interpolation-filters="sRGB">
<feFlood flood-opacity="0" result="BackgroundImageFix"/>
<feColorMatrix in="SourceAlpha" type="matrix" values="0 0 0 0 0 0 0 0 0 0 0 0 0 0 0 0 0 0 127 0" result="hardAlpha"/>
<feOffset/>
<feGaussianBlur stdDeviation="3.5"/>
<feComposite in2="hardAlpha" operator="out"/>
<feColorMatrix type="matrix" values="0 0 0 0 0 0 0 0 0 0 0 0 0 0 0 0 0 0 0.35 0"/>
<feBlend mode="normal" in2="BackgroundImageFix" result="effect1_dropShadow"/>
<feBlend mode="normal" in="SourceGraphic" in2="effect1_dropShadow" result="shape"/>
</filter>
</defs>
</svg>
